<?xml version="1.0" encoding="utf-8"?>
<!-- Generator: Adobe Illustrator 23.1.1, SVG Export Plug-In . SVG Version: 6.00 Build 0)  -->
<svg version="1.1" id="Layer_1" xmlns="http://www.w3.org/2000/svg" xmlns:xlink="http://www.w3.org/1999/xlink" x="0px" y="0px"
	 viewBox="0 0 400 400" style="enable-background:new 0 0 400 400;" xml:space="preserve">
<g id="GHTdGv.tif">
	<g>
		<path d="M253.21,247c-36.78,0-73.55,0-110.33,0c0.32-0.43,0.62-0.88,0.98-1.28c3.75-4.04,7.55-8.04,11.28-12.08
			c5.56-6,11.12-12.01,16.65-18.04c2.76-3.02,5.42-6.1,8.2-9.09c2.18-2.36,4.49-4.61,6.87-7.03c2.12,1.58,4.05,2.97,5.92,4.42
			c4.32,3.33,6.19,3.33,10.52,0c1.93-1.48,3.9-2.89,6.03-4.45c1.78,1.91,3.31,3.58,4.88,5.23c4.05,4.31,8.14,8.58,12.16,12.9
			c6.69,7.21,13.36,14.44,20.01,21.68C248.71,241.81,250.94,244.43,253.21,247z"/>
		<path d="M135,161.89c2.12,1.64,4.19,3.33,6.36,4.88c4.46,3.19,9.01,6.26,13.45,9.47c8.35,6.03,16.63,12.12,25.18,18.35
			c-1.79,2.03-3.5,4.04-5.29,5.96c-7.58,8.12-15.2,16.19-22.75,24.31c-5.08,5.48-10.05,11.04-15.1,16.53
			c-0.51,0.55-1.24,0.95-1.85,1.42C135,215.85,135,188.86,135,161.89z"/>
		<path d="M142.22,157c37.45,0,74.2,0,111.58,0c-2.95,2.26-5.42,4.25-8.02,6.1c-4.46,3.2-9.01,6.29-13.47,9.47
			c-7.04,5.02-14.06,10.09-21.05,15.18c-3.78,2.75-7.4,5.69-11.28,8.29c-0.87,0.58-2.97,0.63-3.81,0.04
			c-6.81-4.68-13.45-9.57-20.14-14.4c-6.75-4.88-13.5-9.76-20.23-14.65C151.41,163.84,147.07,160.6,142.22,157z"/>
		<path d="M215.95,194.58c6.12-4.37,11.89-8.45,17.63-12.57c7.1-5.09,14.18-10.2,21.26-15.31c1.97-1.42,3.93-2.89,6.16-4.54
			c0,27.08,0,53.71,0,81.02C245.78,226.77,230.96,210.77,215.95,194.58z"/>
	</g>
</g>
</svg>
