<?xml version="1.0" encoding="utf-8"?>
<!-- Generator: Adobe Illustrator 24.0.3, SVG Export Plug-In . SVG Version: 6.00 Build 0)  -->
<svg version="1.1" id="Layer_1" xmlns="http://www.w3.org/2000/svg" xmlns:xlink="http://www.w3.org/1999/xlink" x="0px" y="0px"
	 viewBox="0 0 400 400" style="enable-background:new 0 0 400 400;" xml:space="preserve">
<style type="text/css">
	.st0{fill:#F1F1F2;}
</style>
<g id="GHTdGv.tif">
	<g>
		<path class="st0" d="M301.05,280.43c-65.85,0-131.69,0-197.54,0c0.57-0.77,1.11-1.58,1.75-2.29c6.71-7.23,13.52-14.4,20.2-21.63
			c9.95-10.74,19.91-21.5,29.81-32.3c4.94-5.41,9.7-10.92,14.68-16.28c3.9-4.23,8.04-8.25,12.3-12.59c3.8,2.83,7.25,5.32,10.6,7.91
			c7.73,5.96,11.08,5.96,18.84,0c3.46-2.65,6.98-5.17,10.8-7.97c3.19,3.42,5.93,6.41,8.74,9.36c7.25,7.72,14.57,15.36,21.77,23.1
			c11.98,12.91,23.92,25.85,35.83,38.82C293,271.14,296.99,275.83,301.05,280.43z"/>
		<path class="st0" d="M89.4,128.04c3.8,2.94,7.5,5.96,11.39,8.74c7.99,5.71,16.13,11.21,24.08,16.96
			c14.95,10.8,29.78,21.7,45.08,32.85c-3.2,3.63-6.27,7.23-9.47,10.67c-13.57,14.54-27.21,28.99-40.73,43.53
			c-9.1,9.81-17.99,19.77-27.04,29.6c-0.91,0.98-2.22,1.7-3.31,2.54C89.4,224.66,89.4,176.33,89.4,128.04z"/>
		<path class="st0" d="M102.33,119.29c67.05,0,132.85,0,199.78,0c-5.28,4.05-9.7,7.61-14.36,10.92
			c-7.99,5.73-16.13,11.26-24.12,16.96c-12.6,8.99-25.17,18.07-37.69,27.18c-6.77,4.92-13.25,10.19-20.2,14.84
			c-1.56,1.04-5.32,1.13-6.82,0.07c-12.19-8.38-24.08-17.13-36.06-25.78c-12.09-8.74-24.17-17.47-36.22-26.23
			C118.78,131.53,111.01,125.73,102.33,119.29z"/>
		<path class="st0" d="M234.34,186.57c10.96-7.82,21.29-15.13,31.57-22.51c12.71-9.11,25.39-18.26,38.06-27.41
			c3.53-2.54,7.04-5.17,11.03-8.13c0,48.49,0,96.16,0,145.06C287.75,244.21,261.21,215.56,234.34,186.57z"/>
	</g>
</g>
</svg>
