<?xml version="1.0" encoding="utf-8"?>
<!-- Generator: Adobe Illustrator 24.0.3, SVG Export Plug-In . SVG Version: 6.00 Build 0)  -->
<svg version="1.1" id="Layer_1" xmlns="http://www.w3.org/2000/svg" xmlns:xlink="http://www.w3.org/1999/xlink" x="0px" y="0px"
	 viewBox="0 0 400 400" style="enable-background:new 0 0 400 400;" xml:space="preserve">
<style type="text/css">
	.st0{fill:#F1F2F2;}
</style>
<g>
	<g id="fTRzeb.tif">
		<g>
			<path class="st0" d="M267.61,315c-46.41,0-92.81,0-139.22,0c-0.31-0.14-0.62-0.35-0.94-0.4c-22-3.32-37.43-21.84-37.44-44.98
				C90,224.87,90,180.12,90.02,135.37c0-2.11,0.13-4.24,0.38-6.34c2.71-22.27,20.91-38.99,42.51-39.01
				c43.38-0.03,86.77-0.02,130.15,0c19.33,0.01,36.11,13.34,41.33,32.78c0.64,2.37,1.08,4.8,1.61,7.2c0,48.34,0,96.68,0,145.02
				c-0.13,0.33-0.33,0.64-0.39,0.98c-3.06,19.28-13.68,31.68-31.5,37.47C272,314.15,269.78,314.5,267.61,315z M198.06,137.45
				c-22.15,0-44.29,0-66.44,0c-9.69,0-15.82,6.35-15.83,16.43c-0.01,32.44-0.01,64.89,0,97.33c0,9.94,6.15,16.33,15.7,16.33
				c44.29,0,88.59,0,132.88,0c9.69,0,15.82-6.36,15.82-16.42c0.01-32.44,0.01-64.89,0-97.33c0-9.94-6.15-16.33-15.7-16.33
				C242.35,137.45,220.21,137.45,198.06,137.45z"/>
		</g>
	</g>
	<g>
		<g>
			<path class="st0" d="M132.31,171.98h9.83v2.71h-6.77v5.61h6.36v2.67h-6.36v8.83h-3.06V171.98z"/>
			<path class="st0" d="M153.74,188.73c0,0.81,0.07,2.46,0.12,3.07h-2.76c-0.07-0.31-0.15-1.02-0.15-1.5
				c-0.57,1.05-1.6,1.77-3.45,1.77c-2.89,0-3.98-2.29-3.98-4.42c0-2.97,2.03-4.9,5.89-4.9c0.57,0,0.97,0,1.34,0.04v-1.76
				c0-0.98-0.15-2.16-1.83-2.16c-1.7,0-1.86,1.16-1.94,2.15h-2.89c0.06-2.19,1.09-4.51,4.94-4.51c3.12,0,4.71,1.45,4.71,4.29V188.73
				z M150.82,185.02c-0.36-0.06-0.7-0.07-1.25-0.07c-2.21,0-3.05,1.04-3.05,2.42c0,1.07,0.54,2.19,1.93,2.19
				c1.92,0,2.37-1.4,2.37-3.95V185.02z"/>
			<path class="st0" d="M157.02,181.27c0-2.87,0-3.84-0.03-4.51h2.9c0.06,0.34,0.1,1.11,0.1,1.66c0.65-1.21,1.75-1.92,3.33-1.92
				c1.61,0,2.61,0.72,3.07,2.11c0.59-1.1,1.68-2.11,3.67-2.11c2.05,0,3.75,1.03,3.75,4.46v10.83h-2.99v-10.36
				c0-1.31-0.41-2.32-1.77-2.32c-1.58,0-2.1,1.28-2.1,3.19v9.49h-3.01v-10.3c0-1.54-0.52-2.36-1.75-2.36c-1.53,0-2.15,1.19-2.15,3.3
				v9.37h-3.01V181.27z"/>
			<path class="st0" d="M177.04,176.76h3.03v15.04h-3.03V176.76z M177.06,171h3.03v3.32h-3.03V171z"/>
			<path class="st0" d="M193,186.87c-0.06,1.07-0.35,5.19-5.12,5.19c-4.18,0-5.25-3.45-5.25-7.88c0-4.07,1.33-7.69,5.43-7.69
				c4.74,0,4.92,4.18,4.94,5.03h-3.07c-0.03-0.59-0.14-2.49-1.88-2.49c-1.75,0-2.34,1.93-2.34,5.17c0,3.4,0.59,5.34,2.28,5.34
				c1.81,0,1.98-1.82,2.07-2.65H193z"/>
			<path class="st0" d="M205.54,184.13c0,5.4-1.93,7.94-5.52,7.94c-3.58,0-5.46-2.44-5.46-7.87c0-5.29,2.17-7.7,5.61-7.7
				C203.67,176.5,205.54,179.09,205.54,184.13z M197.63,184.19c0,3.52,0.7,5.33,2.46,5.33c1.69,0,2.38-1.81,2.38-5.31
				c0-3.5-0.69-5.13-2.4-5.13C198.41,179.08,197.63,180.68,197.63,184.19z"/>
			<path class="st0" d="M208.07,181.43c0-3.09-0.01-3.91-0.03-4.67h2.92c0.05,0.37,0.1,0.99,0.1,1.7c0.46-0.94,1.42-1.98,3.4-1.98
				c2.36,0,3.86,1.45,3.86,4.59v10.72h-3.04v-10.05c0-1.61-0.4-2.63-1.9-2.63c-1.55,0-2.26,0.94-2.26,3.49v9.19h-3.04V181.43z"/>
			<path class="st0" d="M132.31,207.08h5.67c3.22,0,5.57,1.96,5.57,5.77c0,3.72-2.12,5.82-5.86,5.82h-2.3v8.23h-3.08V207.08z
				 M135.39,216.16h1.96c2.11,0,3.1-1.07,3.1-3.36c0-2.05-1.06-3.2-2.89-3.2h-2.17V216.16z"/>
			<path class="st0" d="M145.86,226.89V206.1h3.03v20.79H145.86z"/>
			<path class="st0" d="M161.63,223.83c0,0.81,0.07,2.46,0.12,3.07h-2.76c-0.07-0.31-0.15-1.02-0.15-1.5
				c-0.57,1.05-1.6,1.77-3.45,1.77c-2.89,0-3.98-2.29-3.98-4.42c0-2.97,2.03-4.9,5.89-4.9c0.57,0,0.97,0,1.35,0.04v-1.76
				c0-0.98-0.15-2.16-1.83-2.16c-1.7,0-1.86,1.16-1.94,2.16h-2.89c0.06-2.19,1.09-4.5,4.94-4.5c3.12,0,4.71,1.45,4.71,4.29V223.83z
				 M158.72,220.12c-0.36-0.06-0.71-0.07-1.25-0.07c-2.21,0-3.05,1.04-3.05,2.42c0,1.07,0.54,2.19,1.93,2.19
				c1.92,0,2.37-1.4,2.37-3.95V220.12z"/>
			<path class="st0" d="M174.57,221.97c-0.06,1.07-0.35,5.19-5.12,5.19c-4.18,0-5.25-3.46-5.25-7.88c0-4.07,1.33-7.69,5.43-7.69
				c4.74,0,4.92,4.18,4.94,5.03h-3.07c-0.03-0.59-0.14-2.49-1.88-2.49c-1.75,0-2.34,1.93-2.34,5.17c0,3.4,0.59,5.34,2.28,5.34
				c1.81,0,1.98-1.82,2.07-2.65H174.57z"/>
			<path class="st0" d="M179.16,220.11c0,2.26,0.32,4.53,2.4,4.53c1.94,0,2.19-1.73,2.26-2.22h2.92c-0.05,0.44-0.42,4.75-5.22,4.75
				c-4.73,0-5.38-4.08-5.38-7.87c0-4.77,1.75-7.71,5.47-7.71c4.22,0,5.25,3.26,5.25,7.13c0,0.45-0.02,1.08-0.05,1.38H179.16z
				 M183.85,217.87c0-1.84-0.3-3.75-2.26-3.75c-2.25,0-2.37,2.69-2.39,3.75H183.85z"/>
			<path class="st0" d="M192.38,206.1v7.33c0.54-1.05,1.56-1.85,3.45-1.85c2.39,0,3.76,1.54,3.76,4.66v10.65h-3.04v-10.04
				c0-1.6-0.35-2.65-1.95-2.65c-1.71,0-2.22,1.34-2.22,3.54v9.14h-3.04V206.1H192.38z"/>
			<path class="st0" d="M213.09,219.23c0,5.4-1.93,7.94-5.52,7.94c-3.58,0-5.46-2.44-5.46-7.87c0-5.29,2.17-7.7,5.61-7.7
				C211.21,211.6,213.09,214.2,213.09,219.23z M205.18,219.29c0,3.52,0.7,5.33,2.46,5.33c1.69,0,2.38-1.81,2.38-5.31
				c0-3.5-0.69-5.13-2.4-5.13C205.95,214.18,205.18,215.78,205.18,219.29z"/>
			<path class="st0" d="M215.62,226.89V206.1h3.03v20.79H215.62z"/>
			<path class="st0" d="M232.03,206.1v16.72c0,1.67,0,3.2,0.03,4.07h-2.92c-0.05-0.38-0.1-1.22-0.1-1.74c-0.45,1.15-1.37,2-3.41,2
				c-3.16,0-4.44-2.79-4.44-7.92c0-4.67,1.59-7.64,4.99-7.64c1.74,0,2.51,0.68,2.82,1.31v-6.82H232.03z M224.28,219.28
				c0,3.77,0.75,5.28,2.34,5.28c1.98,0,2.45-1.6,2.45-5.38c0-3.78-0.39-4.97-2.29-4.97C225.24,214.21,224.28,215.45,224.28,219.28z"
				/>
			<path class="st0" d="M237.54,220.11c0,2.26,0.32,4.53,2.4,4.53c1.94,0,2.19-1.73,2.26-2.22h2.92c-0.05,0.44-0.42,4.75-5.22,4.75
				c-4.73,0-5.38-4.08-5.38-7.87c0-4.77,1.75-7.71,5.47-7.71c4.22,0,5.25,3.26,5.25,7.13c0,0.45-0.02,1.08-0.05,1.38H237.54z
				 M242.24,217.87c0-1.84-0.3-3.75-2.26-3.75c-2.25,0-2.37,2.69-2.39,3.75H242.24z"/>
			<path class="st0" d="M247.71,216.96c0-2.45,0-4.03-0.03-5.1h2.9c0.03,0.3,0.08,0.95,0.08,2.54c0.59-1.74,1.96-2.78,3.95-2.79V215
				c-2.5-0.01-3.87,1.02-3.87,3.83v8.06h-3.03V216.96z"/>
		</g>
	</g>
</g>
</svg>
