<?xml version="1.0" encoding="utf-8"?>
<!-- Generator: Adobe Illustrator 24.0.3, SVG Export Plug-In . SVG Version: 6.00 Build 0)  -->
<svg version="1.1" id="Layer_1" xmlns="http://www.w3.org/2000/svg" xmlns:xlink="http://www.w3.org/1999/xlink" x="0px" y="0px"
	 viewBox="0 0 400 400" style="enable-background:new 0 0 400 400;" xml:space="preserve">
<style type="text/css">
	.st0{fill:#F1F1F2;}
</style>
<g id="PyrmUb.tif">
	<g>
		<path class="st0" d="M90,296.06c0-63,0-125.97,0-188.97c0.12-0.22,0.31-0.4,0.38-0.62c2.29-8.59,8.31-13.28,17.09-13.28
			c60.74,0,121.48,0,182.26,0c9.89,0,17.09,7.19,17.09,17.09c0,60.84,0,121.67-0.03,182.52c0,2.19-0.38,4.47-1.12,6.56
			c-2.13,5.97-6.88,9.02-12.73,10.65c-63,0-125.97,0-188.97,0C96.52,308.09,91.89,303.44,90,296.06z M279.81,201.7
			c-0.15,0-0.31,0-0.46,0c0-6.45,0.12-12.92-0.03-19.41c-0.15-6.52-0.46-13.08-0.89-19.58c-1.51-22.8-18.45-39.85-41.19-41.06
			c-13.13-0.71-26.33-1.05-39.49-0.96c-13.97,0.09-28.03,0.24-41.9,1.55c-17.31,1.6-30.8,13.97-35.53,30.65
			c-2.68,9.55-2.63,19.38-2.65,29.08c-0.07,19.22,0.12,38.44,0.86,57.63c0.93,23.42,18.51,40.75,41.93,41.95
			c9.91,0.5,19.87,1.02,29.79,0.93c16.62-0.19,33.33-0.07,49.87-1.55c21.6-1.91,37.01-18.79,38.29-40.51
			C279.12,227.53,279.35,214.59,279.81,201.7z"/>
		<path class="st0" d="M265.5,199.1c-0.53,14.49-0.77,26.57-1.45,38.63c-0.83,15.19-9.24,25.74-22.8,28.34
			c-6.06,1.17-12.32,1.6-18.51,1.74c-14.06,0.31-28.15,0.43-42.21,0.22c-7.76-0.12-15.57-0.55-23.23-1.76
			c-13.99-2.19-22.87-11.58-24-25.71c-0.93-11.53-0.89-23.11-1.2-34.71c-0.19-7.3-0.43-14.59-0.19-21.85
			c0.28-8,0.65-16.07,1.82-23.97c1.98-13.28,11.37-22.33,24.73-23.57c11.27-1.02,22.61-1.17,33.95-1.43
			c9.43-0.22,18.88-0.24,28.34,0.03c6.52,0.19,13.08,0.65,19.5,1.76c13.28,2.29,21.99,11.31,23.26,24.74
			C264.72,174.85,264.95,188.17,265.5,199.1z M198.23,242.94c23.18,0.03,41.74-18.26,41.78-41.19c0.07-23.02-18.45-41.71-41.31-41.8
			c-23.06-0.09-41.62,18.36-41.68,41.35C156.99,224.5,175.19,242.93,198.23,242.94z M241.72,167.83c5.37,0,9.6-4.16,9.7-9.52
			c0.09-5.2-4.63-9.89-9.86-9.76c-5.32,0.12-9.48,4.46-9.45,9.79C232.17,163.86,236.21,167.83,241.72,167.83z"/>
		<path class="st0" d="M225.42,201.61c-0.03,15.04-12.05,26.91-27.29,26.88c-14.76-0.03-26.67-12.2-26.64-27.31
			c0.03-14.68,12.2-26.67,27.07-26.64C213.53,174.58,225.42,186.59,225.42,201.61z"/>
	</g>
</g>
</svg>
