<?xml version="1.0" encoding="utf-8"?>
<!-- Generator: Adobe Illustrator 23.1.1, SVG Export Plug-In . SVG Version: 6.00 Build 0)  -->
<svg version="1.1" id="Layer_1" xmlns="http://www.w3.org/2000/svg" xmlns:xlink="http://www.w3.org/1999/xlink" x="0px" y="0px"
	 viewBox="0 0 400 400" style="enable-background:new 0 0 400 400;" xml:space="preserve">
<g id="PyrmUb.tif">
	<g>
		<path d="M135,247.9c0-36.61,0-73.21,0-109.82c0.07-0.13,0.18-0.23,0.22-0.36c1.33-4.99,4.83-7.72,9.93-7.72
			c35.3,0,70.6,0,105.92,0c5.75,0,9.93,4.18,9.93,9.93c0,35.36,0,70.71-0.02,106.07c0,1.27-0.22,2.6-0.65,3.81
			c-1.24,3.47-4,5.24-7.4,6.19c-36.61,0-73.21,0-109.82,0C138.79,254.89,136.1,252.19,135,247.9z M245.31,193.06
			c-0.09,0-0.18,0-0.27,0c0-3.75,0.07-7.51-0.02-11.28c-0.09-3.79-0.27-7.6-0.52-11.38c-0.88-13.25-10.72-23.16-23.94-23.86
			c-7.63-0.41-15.3-0.61-22.95-0.56c-8.12,0.05-16.29,0.14-24.35,0.9c-10.06,0.93-17.9,8.12-20.65,17.81
			c-1.56,5.55-1.53,11.26-1.54,16.9c-0.04,11.17,0.07,22.34,0.5,33.49c0.54,13.61,10.76,23.68,24.37,24.38
			c5.76,0.29,11.55,0.59,17.31,0.54c9.66-0.11,19.37-0.04,28.98-0.9c12.55-1.11,21.51-10.92,22.25-23.54
			C244.91,208.07,245.04,200.55,245.31,193.06z"/>
		<path d="M236.99,191.55c-0.31,8.42-0.45,15.44-0.84,22.45c-0.48,8.83-5.37,14.96-13.25,16.47c-3.52,0.68-7.16,0.93-10.76,1.01
			c-8.17,0.18-16.36,0.25-24.53,0.13c-4.51-0.07-9.05-0.32-13.5-1.02c-8.13-1.27-13.29-6.73-13.95-14.94
			c-0.54-6.7-0.52-13.43-0.7-20.17c-0.11-4.24-0.25-8.48-0.11-12.7c0.16-4.65,0.38-9.34,1.06-13.93c1.15-7.72,6.61-12.98,14.37-13.7
			c6.55-0.59,13.14-0.68,19.73-0.83c5.48-0.13,10.97-0.14,16.47,0.02c3.79,0.11,7.6,0.38,11.33,1.02
			c7.72,1.33,12.78,6.57,13.52,14.38C236.54,177.46,236.67,185.2,236.99,191.55z M197.9,217.03c13.47,0.02,24.26-10.61,24.28-23.94
			c0.04-13.38-10.72-24.24-24.01-24.29c-13.4-0.05-24.19,10.67-24.22,24.03C173.93,206.31,184.51,217.02,197.9,217.03z
			 M223.17,173.38c3.12,0,5.58-2.42,5.64-5.53c0.05-3.02-2.69-5.75-5.73-5.67c-3.09,0.07-5.51,2.59-5.49,5.69
			C217.62,171.07,219.97,173.38,223.17,173.38z"/>
		<path d="M213.7,193.01c-0.02,8.74-7,15.64-15.86,15.62c-8.58-0.02-15.5-7.09-15.48-15.87c0.02-8.53,7.09-15.5,15.73-15.48
			C206.79,177.3,213.7,184.28,213.7,193.01z"/>
	</g>
</g>
</svg>
