<?xml version="1.0" encoding="utf-8"?>
<!-- Generator: Adobe Illustrator 23.1.1, SVG Export Plug-In . SVG Version: 6.00 Build 0)  -->
<svg version="1.1" id="Layer_1" xmlns="http://www.w3.org/2000/svg" xmlns:xlink="http://www.w3.org/1999/xlink" x="0px" y="0px"
	 viewBox="0 0 400 400" style="enable-background:new 0 0 400 400;" xml:space="preserve">
<style type="text/css">
	.st0{fill:#F1F2F2;}
	.st1{fill:#438EAC;}
</style>
<g>
	<g id="apSe3Q.tif_3_">
		<g>
			<path class="st0" d="M208.09,334.09c-6.7,0-13.41,0-20.11,0c-3.28-0.49-6.57-0.97-9.85-1.48c-26.97-4.19-50.53-15.65-69.74-34.9
				c-33.42-33.49-45.66-73.91-36-120.26c11.59-55.61,60.42-97.19,117.29-100.69c20.26-1.25,39.99,1.64,58.57,10
				c41.79,18.8,67.45,50.69,76.51,95.72c0.85,4.23,1.34,8.54,2,12.81c0,6.7,0,13.41,0,20.11c-0.16,0.54-0.42,1.08-0.46,1.63
				c-1.16,13.77-4.36,27.07-10.14,39.6c-18.95,41.11-50.59,66.38-95.03,75.41C216.83,332.94,212.44,333.42,208.09,334.09z
				 M148.46,157.17c-3.83,12.06-7.19,34.32-6.09,40.02c15.81,0,31.6,0,47.48,0c0-13.4,0-26.66,0-40.02
				C175.99,157.17,162.28,157.17,148.46,157.17z M189.83,253.54c0-13.47,0-26.73,0-39.95c-16.02,0-31.87,0-47.82,0
				c0.45,13.7,2.57,26.92,6.41,39.95C162.22,253.54,175.93,253.54,189.83,253.54z M254.06,197.2c-0.48-13.77-2.57-27-6.4-39.94
				c-13.91,0-27.69,0-41.47,0c0,13.39,0,26.6,0,39.94C222.12,197.2,237.91,197.2,254.06,197.2z M206.19,253.54
				c13.91,0,27.62,0,41.45,0c3.85-13.08,6.01-26.35,6.39-40.02c-16.12,0-31.92,0-47.84,0C206.19,226.86,206.19,240.07,206.19,253.54
				z M130.83,253.64c-1.96-13.4-3.9-26.68-5.87-40.12c-12.65,0-25.76,0-39,0c-0.03,0.51-0.1,0.91-0.07,1.31
				c1.15,13.1,4.34,25.68,10,37.57c0.3,0.64,1.52,1.18,2.33,1.19c5.61,0.1,11.23,0.05,16.84,0.05
				C120.49,253.64,125.92,253.64,130.83,253.64z M85.47,197.14c13.76,0,26.93,0,39.5,0c1.98-13.51,3.92-26.76,5.87-40.06
				c-10.79,0-21.93-0.04-33.06,0.08c-0.76,0.01-1.92,1-2.2,1.78c-2.46,6.83-5.11,13.61-6.99,20.6
				C87.05,185.21,86.49,191.14,85.47,197.14z M310.07,197.2c0.05-0.41,0.13-0.73,0.11-1.04c-1.1-13.2-4.34-25.85-10.01-37.84
				c-0.3-0.64-1.52-1.18-2.33-1.19c-4.94-0.11-9.89-0.05-14.83-0.05c-6.1,0-12.21,0-17.79,0c1.96,13.39,3.91,26.66,5.88,40.13
				C283.74,197.2,296.86,197.2,310.07,197.2z M265.23,253.64c10.42,0,21.31-0.05,32.19,0.05c1.83,0.02,2.61-0.64,3.31-2.23
				c3.55-7.98,6.17-16.25,7.81-24.81c0.82-4.3,1.25-8.67,1.87-13.11c-13.62,0-26.74,0-39.32,0
				C269.13,227.02,267.18,240.29,265.23,253.64z M189.8,140.92c0-15.49,0-30.74,0-46.38c-15.97,12.54-27.25,28.09-35.44,46.38
				C166.4,140.92,178.02,140.92,189.8,140.92z M154.34,269.8c8.35,18.38,19.53,33.97,35.48,46.33c0-15.73,0-31,0-46.33
				C178.02,269.8,166.39,269.8,154.34,269.8z M206.26,269.8c0,15.48,0,30.73,0,46.36c15.97-12.52,27.25-28.07,35.43-46.36
				C229.67,269.8,218.05,269.8,206.26,269.8z M206.25,94.56c0,15.76,0,31.03,0,46.36c11.8,0,23.42,0,35.44,0
				C233.5,122.63,222.23,107.07,206.25,94.56z M290.16,141c-10.84-17.39-41.33-40.24-55.29-41.58c0.4,0.53,0.74,1,1.1,1.45
				c8.19,9.93,14.88,20.78,20.12,32.54c1.11,2.5,1.64,5.96,3.57,7.21c1.96,1.27,5.34,0.38,8.1,0.39
				C275.11,141.01,282.45,141,290.16,141z M290.35,269.71c-1.29,0-2.02,0-2.74,0c-8.62,0-17.25,0.06-25.87-0.05
				c-1.89-0.02-2.74,0.55-3.44,2.32c-5.26,13.31-12.34,25.57-21.4,36.68c-0.37,0.45-0.75,0.9-1.09,1.38
				c-0.29,0.4-0.55,0.83-1.16,1.77C257.81,303.44,276.03,289.69,290.35,269.71z M105.71,141c9.99,0,19.36-0.05,28.73,0.04
				c1.78,0.02,2.62-0.51,3.28-2.2c4.21-10.8,9.71-20.92,16.5-30.32c2.22-3.08,4.59-6.05,6.89-9.06
				C138.29,107.25,120.03,121,105.71,141z M161.24,311.74c-0.22-0.59-0.24-0.78-0.34-0.9c-10.05-11.95-17.78-25.26-23.65-39.71
				c-0.28-0.68-1.58-1.35-2.41-1.35c-9.04-0.1-18.09-0.06-27.13-0.05c-0.52,0-1.04,0.14-1.83,0.25
				C120.08,289.73,138.33,303.52,161.24,311.74z"/>
		</g>
	</g>
	<g>
		<g>
			<path class="st1" d="M310.76,216.04c4.97-1.29,9.8-2.56,13.8,2.51c1.5,1.9,4.01,3.01,6.03,4.51c2.56,1.9,5.03,4.49,3.52,7.54
				c-1.18,2.38-3.95,4.46-6.49,5.6c-6.68,2.99-11.71-0.15-15.39-5.92c-3.44,0.84-6.44,1.31-9.26,2.31
				c-16.55,5.86-29.64,0.65-40.38-12.36c-0.64-0.77-1.35-1.49-2.09-2.17c-0.36-0.33-0.85-0.51-2.11-1.24
				c-7.24,1.85-14.12,5.72-20.8,10.24c-4.58,3.1-9.36,6-14.34,8.4c-4.78,2.31-9.32-0.55-9.58-5.92c-0.16-3.4,0.66-6.85,1.22-11.79
				c-4.59,3.63-7.96,7.4-12.16,9.31c-4.41,2.01-9.62,2.25-15.82,3.55c-6.26,4.99-13.91,10.77-21.19,17
				c-4.42,3.78-9.52,5.64-14.92,7.09c-8.74,2.35-16.03,0.73-20.9-7.63c-1.01-1.73-2.25-3.32-3.77-5.54
				c-3.82,0.3-7.72,0.6-11.98,0.93c-4.09,6.63-8.04,13.08-12.05,19.49c-14.43,23.1-29.78,45.64-42.55,69.75
				c-3.07,5.8-6.1,11.62-9.18,17.41c-0.94,1.76-1.67,3.9-3.14,5.03c-1.43,1.11-3.84,1.87-5.51,1.47c-1.62-0.39-3.98-2.39-4.04-3.78
				c-0.36-7.53-1.01-15.23,0.09-22.62c3.04-20.48,7.28-40.78,10.32-61.26c2.81-18.97,4.5-38.1,7-57.12
				c5.94-45.22,21.83-85.96,53.37-119.92c14.59-15.71,30.33-29.68,49.84-38.91c7.8-3.69,15.88-6.33,24.6-7.3
				c20.27-2.23,35.74,10.42,37.24,30.42c1.49,19.82-5.41,36.93-16.95,52.21c-11.86,15.71-24.03,31.3-37.38,45.72
				c-7.48,8.07-15.24,16.02-22.94,23.95c-3.07,3.16-6.53,6.34-5.46,12.23c7.2-0.65,14.29-1.3,21.68-1.97
				c0.23-2.4-0.2-5.66,0.96-8.19c1.39-3.04,3.61-6.31,6.38-7.99c9.55-5.81,22.77-3.12,29.98,5.48c3.18,3.79,6.33,7.62,9.85,11.85
				c8.49-6.63,16.36-12.78,24.12-18.84c5.5,1.84,6.45,5.52,5.25,9.79c-1.6,5.73-3.72,11.31-6.21,18.74c3.21-1.06,4.95-1.4,6.47-2.18
				c8.56-4.37,16.9-9.19,25.63-13.16c6.98-3.17,8.41-2.24,13.14,5.22c0.53,0.84,1.1,1.65,2.06,3.09c3.04-1.39,6.12-3.02,9.36-4.22
				c3.3-1.22,6.69-2.38,10.15-2.93c4.01-0.64,8.11-0.48,11.5,2.44c3.05,2.62,2.98,6.23,3.12,9.77c-0.83,0.17-1.67,0.3-2.47,0.54
				c-0.23,0.07-0.35,0.49-0.52,0.74C308.81,216.95,309.79,216.5,310.76,216.04z M155.74,170.56c8.77-9.76,17.75-19.35,26.24-29.35
				c5.87-6.93,11.72-14.03,16.41-21.77c7.93-13.1,13.73-27.06,12.08-43.04c-0.48-4.64-1.46-8.82-4.37-12.66
				c-7.21-9.51-18.02-13.34-29.55-9.82c-19.24,5.87-35.84,16.49-50.62,29.8c-17.5,15.76-30.31,35.23-41.32,55.85
				c-6.92,12.96-13.21,26.28-15.73,40.95c-2.48,14.44-4.99,28.88-7.02,43.38c-3.01,21.5-5.52,43.06-8.44,64.57
				c-1.49,11.01-1.29,22.43,1.48,31.8c16.31-25.49,32.16-50.11,47.8-74.87c1.83-2.9,3.69-6.63,3.47-9.83
				c-0.85-12.61,6.02-20.92,14.34-28.79c8.55-8.08,15.41-17.47,20.27-28.19c7.53-16.58,15.1-33.15,22.13-49.94
				c5.27-12.59,9.13-25.64,10.92-39.32c0.91-6.94,3.32-13.73,5.51-20.43c0.48-1.48,3.42-3.58,4.33-3.2
				c2.02,0.83,4.31,2.76,4.98,4.75c1.71,5.07-0.19,9.91-2.28,14.63c-2.04,4.6-4.27,9.19-5.64,14.01
				c-4.85,17.01-9.52,34.02-17.21,50.08c-3.26,6.8-5.31,14.18-7.91,21.3l-0.67,0.76L155.74,170.56z M147.03,243.54
				c3.21-0.72,5.94-0.74,8.03-1.91c10.58-5.92,20.52-12.75,28.18-22.36c0.82-1.03,1.57-3.24,1.04-4.05
				c-2.54-3.92,0.56-4.87,2.68-6.91c1.06-1.02,1.47-4.26,0.65-5.36c-1.28-1.72-3.96-3.58-5.87-3.41c-4.43,0.4-9.21,1.34-10.53,6.88
				c-0.92,3.87-3.35,5.85-7.15,6.87c-1.8,0.48-3.82,1.74-4.83,3.26c-4.54,6.76-10.44,12.17-16.29,17.7
				c-1.15,1.09-1.86,4.17-1.15,5.36C142.89,241.42,145.39,242.39,147.03,243.54z"/>
			<polygon class="st1" points="299.24,220.78 298.42,220.29 298.25,221.01 			"/>
			<polygon class="st1" points="127.21,221.94 126.45,221.87 126.72,222.84 			"/>
			<path class="st1" d="M310.68,280.57c0.18-0.92,0.41-2.94,1-4.85c6.23-20.03,34.61-29.22,51.18-16.6
				c8.26,6.29,10.8,16.14,6.62,25.71c-5.66,12.97-25.09,23.78-38.72,21.53C318.58,304.36,310.76,294.75,310.68,280.57z
				 M342.84,294.75c-8.27-10.29-8.36-10.32-4.67-20.26c1.47-3.95,0.84-6.71-3.85-8.5c-5.23,2.68-9.36,6.73-11.87,12.41
				c-3.01,6.8,0.84,14.91,8.09,16.24C333.84,295.26,337.35,294.75,342.84,294.75z M348.77,268.61c2.38,1.6,3.39,2.35,4.48,2.96
				c0.27,0.15,1.15-0.17,1.14-0.24c-0.04-0.74-0.03-2.02-0.36-2.12C352.87,268.83,351.59,268.87,348.77,268.61z M355.1,282.31
				l-0.64,0.98l0.99,0.16L355.1,282.31z"/>
		</g>
	</g>
</g>
</svg>
